<svg width="33" height="32" viewBox="0 0 33 32" fill="none" xmlns="http://www.w3.org/2000/svg">
<path fill-rule="evenodd" clip-rule="evenodd" d="M26.0115 18.7366C25.5893 18.3144 24.9048 18.3144 24.4826 18.7366L17.5786 25.6407L17.5786 3.74612C17.5786 3.14906 17.0946 2.66504 16.4975 2.66504C15.9004 2.66504 15.4164 3.14906 15.4164 3.74612L15.4164 25.6407L8.51238 18.7366C8.09019 18.3144 7.40569 18.3144 6.9835 18.7366C6.56131 19.1588 6.56131 19.8433 6.9835 20.2655L15.7331 29.0151C15.9358 29.2178 16.2108 29.3317 16.4975 29.3317C16.7842 29.3317 17.0592 29.2178 17.2619 29.0151L26.0115 20.2655C26.4337 19.8433 26.4337 19.1588 26.0115 18.7366Z" fill="white"/>
</svg>
