<svg width="16" height="16" viewBox="0 0 16 16" fill="none" xmlns="http://www.w3.org/2000/svg">
<path d="M11.4173 2.70151H11.2327C11.1664 1.84407 10.6112 1.33398 9.70793 1.33398H6.28913C5.38588 1.33398 4.83068 1.84407 4.76436 2.70151H4.57973C2.92639 2.70151 2.01562 3.61228 2.01562 5.26561V12.1032C2.01562 13.7565 2.92639 14.6673 4.57973 14.6673H11.4173C13.0707 14.6673 13.9814 13.7565 13.9814 12.1032V5.26561C13.9814 3.61228 13.0707 2.70151 11.4173 2.70151ZM5.77631 2.87245C5.77631 2.46971 5.88639 2.35963 6.28913 2.35963H9.70793C10.1107 2.35963 10.2208 2.46971 10.2208 2.87245V3.55621C10.2208 3.95894 10.1107 4.06903 9.70793 4.06903H6.28913C5.88639 4.06903 5.77631 3.95894 5.77631 3.55621V2.87245ZM12.9558 12.1032C12.9558 13.1815 12.4956 13.6417 11.4173 13.6417H4.57973C3.50144 13.6417 3.04127 13.1815 3.04127 12.1032V5.26561C3.04127 4.18732 3.50144 3.72715 4.57973 3.72715H4.76436C4.83068 4.58458 5.38588 5.09467 6.28913 5.09467H9.70793C10.6112 5.09467 11.1664 4.58458 11.2327 3.72715H11.4173C12.4956 3.72715 12.9558 4.18732 12.9558 5.26561V12.1032Z" fill="white"/>
</svg>
