<svg width="16" height="16" viewBox="0 0 16 16" fill="none" xmlns="http://www.w3.org/2000/svg">
<path d="M8.0026 1.33398C4.32633 1.33398 1.33594 4.32499 1.33594 8.00065C1.33594 11.6763 4.32633 14.6673 8.0026 14.6673C11.6789 14.6673 14.6693 11.6763 14.6693 8.00065C14.6693 4.32499 11.6789 1.33398 8.0026 1.33398ZM8.0026 13.7371C4.83919 13.7371 2.26617 11.1641 2.26617 8.00065C2.26617 4.83724 4.83919 2.26422 8.0026 2.26422C11.166 2.26422 13.739 4.83724 13.739 8.00065C13.739 11.1641 11.166 13.7371 8.0026 13.7371ZM10.1918 6.46889L8.65997 8.00065L10.1918 9.53242C10.3735 9.71412 10.3735 10.0087 10.1918 10.1904C10.1012 10.281 9.98214 10.3268 9.86307 10.3268C9.744 10.3268 9.62493 10.2816 9.53439 10.1904L8.0026 8.65862L6.47082 10.1904C6.38028 10.281 6.26121 10.3268 6.14214 10.3268C6.02307 10.3268 5.904 10.2816 5.81346 10.1904C5.63175 10.0087 5.63175 9.71412 5.81346 9.53242L7.34524 8.00065L5.81346 6.46889C5.63175 6.28718 5.63175 5.99259 5.81346 5.81088C5.99516 5.62917 6.28974 5.62917 6.47145 5.81088L8.00323 7.34268L9.53501 5.81088C9.71672 5.62917 10.0113 5.62917 10.193 5.81088C10.3735 5.99259 10.3735 6.2878 10.1918 6.46889Z" fill="#FA2565"/>
</svg>
