<svg width="24" height="24" viewBox="0 0 24 24" fill="currentColor" xmlns="http://www.w3.org/2000/svg">
<path d="M12.0002 2.72494C12.0002 2.32453 12.3253 1.99721 12.7246 2.0262C14.7653 2.17438 16.718 2.94587 18.3137 4.24498C20.0974 5.69714 21.326 7.71979 21.7924 9.97207C22.2588 12.2244 21.9346 14.5686 20.8743 16.6097C19.8141 18.6508 18.0826 20.264 15.9717 21.1775C13.8608 22.091 11.4995 22.2488 9.28579 21.6245C7.07207 21.0002 5.14125 19.6318 3.8187 17.75C2.49614 15.8682 1.86272 13.588 2.02517 11.2937C2.17049 9.24114 2.94483 7.28955 4.23376 5.70052C4.486 5.38955 4.94713 5.37667 5.23901 5.65076C5.5309 5.92486 5.54258 6.38192 5.29418 6.69597C4.23155 8.03945 3.59331 9.67632 3.47154 11.3961C3.33265 13.3577 3.87423 15.3073 5.00501 16.9162C6.13579 18.5252 7.78665 19.6951 9.67938 20.2289C11.5721 20.7627 13.591 20.6278 15.3958 19.8467C17.2006 19.0657 18.681 17.6864 19.5876 15.9413C20.4941 14.1961 20.7713 12.1918 20.3725 10.2661C19.9738 8.34041 18.9233 6.61105 17.3983 5.36945C16.0613 4.28096 14.4311 3.6257 12.7243 3.48065C12.3254 3.44675 12.0002 3.12535 12.0002 2.72494Z" fill="#EBFF42"/>
</svg>
