<svg width="17" height="16" viewBox="0 0 17 16" fill="none" xmlns="http://www.w3.org/2000/svg">
<path d="M8.5026 1.33398C4.82633 1.33398 1.83594 4.32499 1.83594 8.00065C1.83594 11.6763 4.82633 14.6673 8.5026 14.6673C12.1789 14.6673 15.1693 11.6763 15.1693 8.00065C15.1693 4.32499 12.1789 1.33398 8.5026 1.33398ZM8.5026 13.7371C5.33919 13.7371 2.76617 11.1641 2.76617 8.00065C2.76617 4.83724 5.33919 2.26422 8.5026 2.26422C11.666 2.26422 14.239 4.83724 14.239 8.00065C14.239 11.1641 11.666 13.7371 8.5026 13.7371ZM11.0018 6.22452C11.1835 6.40622 11.1835 6.70082 11.0018 6.88253L8.10757 9.77678C8.01703 9.86733 7.89796 9.9132 7.77889 9.9132C7.65982 9.9132 7.54075 9.86795 7.45021 9.77678L6.00338 8.32996C5.82167 8.14825 5.82167 7.85366 6.00338 7.67195C6.18509 7.49025 6.47966 7.49025 6.66137 7.67195L7.77951 8.79012L10.3445 6.22516C10.5262 6.04346 10.8201 6.04343 11.0018 6.22452Z" fill="#76C81E"/>
</svg>
